# xmcd CD database file
# Copyright (C) 1997 Ti Kan
# 
# Track frame offsets:
#     150
#     13160
#     28387
#     36515
#     51205
#     66735
#     75600
#     83780
#     100250
#     114640
#     128515
#     139050
#     155010
#     169590
# 
# Disc length: 2440 seconds
# 
# Revision: 1
# Processed by: cddbd v1.4b41PL1 Copyright (c) Steve Scherf et al.
# Submitted via: DiscPlay 4.0.3
# 
DISCID=c309860e
DTITLE=Billie Holiday - The Billie Holiday Collection
DYEAR=1900
DGENRE=
TTITLE0=My Man
TTITLE1=Don't Explain
TTITLE2=Swing Brother Swing
TTITLE3=Lover Man
TTITLE4=I Cover The Waterfront
TTITLE5=When Your Lover Has Gone
TTITLE6=Miss Brown To You
TTITLE7=Do Nothing Till You Hear From Me
TTITLE8=Fine And Mellow
TTITLE9=Strange Fruit
TTITLE10=Lover Come Back To Me
TTITLE11=They Can't Take That Away From Me
TTITLE12=She's Funny That Way
TTITLE13=On The Sunny Side Of The Street
EXTD=
EXTT0=
EXTT1=
EXTT2=
EXTT3=
EXTT4=
EXTT5=
EXTT6=
EXTT7=
EXTT8=
EXTT9=
EXTT10=
EXTT11=
EXTT12=
EXTT13=
PLAYORDER=
